# xmcd
#
# Track frame offsets:
# 150
# 18489
# 34512
# 53331
# 69640
# 83964
# 101162
# 119534
# 139485
# 158707
# 184244
# 205490
# 227441
# 244816
# 262555
# 277641
# 297704
# 316387
# 332927
#
# Disc length: 4696 seconds
#
#
# Revision: 0
# Processed by: cddbd v1.5.1PL0 Copyright (c) Steve Scherf et al.
# Submitted via: FreeRIP 2.51 
#
DISCID=12125613
DTITLE=Bruno e Marrone - Inevitável ao vivo
DYEAR=2004
DGENRE=Sertanejo
TTITLE0=Inevitavel
TTITLE1=Agora Vai - Passou da Conta
TTITLE2=Coracao de Pedra
TTITLE3=Deixa
TTITLE4=Transito Parado
TTITLE5=O Amor Esta Aqui
TTITLE6=Credo em Cruz Ave Maria
TTITLE7=Meu Disfarce
TTITLE8=Te Amar Foi Ilusão
TTITLE9=Sera
TTITLE10=Por Um Minuto
TTITLE11=Se Tiver Coragem Joga Fora
TTITLE12=Entao Pode Ir
TTITLE13=Sonhos Perdidos
TTITLE14=Grito de Alerta
TTITLE15=Se Nao Tivesse Ido
TTITLE16=Menina
TTITLE17=Doce Desejo
TTITLE18=Uma Noite
EXTD=
EXTT0=
EXTT1=
EXTT2=
EXTT3=
EXTT4=
EXTT5=
EXTT6=
EXTT7=
EXTT8=
EXTT9=
EXTT10=
EXTT11=
EXTT12=
EXTT13=
EXTT14=
EXTT15=
EXTT16=
EXTT17=
EXTT18=
PLAYORDER=
